Coordinates
version=1
nRows=17
nColumns=24
inDegrees=yes

Units are S.I. units (second, meters, Newtons, ...)
Angles are in degrees.

endheader
time	pelvis_tilt	pelvis_list	pelvis_rotation	pelvis_tx	pelvis_ty	pelvis_tz	hip_flexion_r	hip_adduction_r	hip_rotation_r	knee_angle_r	ankle_angle_r	subtalar_angle_r	mtp_angle_r	hip_flexion_l	hip_adduction_l	hip_rotation_l	knee_angle_l	ankle_angle_l	subtalar_angle_l	mtp_angle_l	lumbar_extension	lumbar_bending	lumbar_rotation
      1.25800000	     -0.24629469	      3.53361458	     -0.63364729	      0.22264750	      1.03098224	      0.27640905	     19.51670045	     -5.74070481	     -7.68261489	    -64.43916982	      2.54087067	     -8.46275049	      9.60788393	      9.33152174	      7.79955573	      1.45564713	    -11.23941962	      4.69915003	     -7.85446023	     -0.60143960	     -8.00325994	     -5.86452759	      1.77387535
      1.26216667	     -0.28632921	      3.39809008	     -0.67859181	      0.22766270	      1.03183383	      0.27616528	     20.06368409	     -5.56952632	     -7.62963506	    -63.88026171	      2.80201546	     -8.64932051	      9.55936960	      8.87781438	      7.66388983	      1.46865720	    -10.87387029	      4.75353290	     -7.83089104	     -0.61181343	     -7.98350070	     -5.66357112	      1.75623258
      1.26633333	     -0.31674467	      3.24350758	     -0.72000141	      0.23264414	      1.03267857	      0.27593131	     20.58070311	     -5.36729058	     -7.57326742	    -63.24794556	      2.98131884	     -8.85826978	      9.46002516	      8.41534398	      7.51007770	      1.52227121	    -10.50952536	      4.79929524	     -7.82753417	     -0.63335015	     -8.01938684	     -5.42394285	      1.74584277
      1.27050000	     -0.35535125	      3.11253199	     -0.76831837	      0.23765926	      1.03345938	      0.27571768	     21.09177184	     -5.18861051	     -7.50757149	    -62.56944186	      3.19493482	     -9.01536688	      9.38185519	      7.96299299	      7.37800122	      1.53167208	    -10.14722273	      4.85486946	     -7.82411415	     -0.65143719	     -7.99186411	     -5.23492060	      1.72859488
      1.27466667	     -0.38686015	      2.98391201	     -0.81670449	      0.24266229	      1.03423901	      0.27550527	     21.57719716	     -5.00462851	     -7.42912343	    -61.82944846	      3.36003012	     -9.13025380	      7.75397839	      7.46879178	      7.26557346	      1.72916597	     -9.70798617	      4.74753707	     -8.13896367	     -1.05450488	     -7.98962708	     -5.06111767	      1.70576077
      1.27883333	     -0.40328533	      2.84239168	     -0.85893571	      0.24765255	      1.03497548	      0.27530061	     22.02448760	     -4.80464121	     -7.35831099	    -61.03371964	      3.56341890	     -9.25118727	      7.71555716	      7.01290747	      7.11907102	      1.70240600	     -9.38828814	      4.88026992	     -8.03178442	     -1.06275346	     -8.00887374	     -4.83525847	      1.70044973
      1.28300000	     -0.42822457	      2.70019740	     -0.90493875	      0.25263779	      1.03567201	      0.27511709	     22.46264347	     -4.59474577	     -7.27298031	    -60.17601934	      3.68809317	     -9.34804484	      7.67310295	      6.56222281	      6.97322316	      1.70263102	     -9.05574009	      4.97340031	     -7.96382594	     -1.07317084	     -8.01585668	     -4.62894850	      1.69055323
      1.28716667	     -0.39975167	      2.54234444	     -0.94025486	      0.25760412	      1.03643109	      0.27493563	     22.81012036	     -4.36436633	     -7.19570647	    -59.23394356	      3.71513864	     -9.51146225	      7.55996656	      6.05186439	      6.81431526	      1.75296923	     -8.71789623	      5.05753867	     -7.93436032	     -1.10417403	     -8.11271400	     -4.42979706	      1.68606842
      1.29133333	     -0.44525937	      2.40862362	     -0.97744791	      0.26256450	      1.03699019	      0.27475981	     23.23435588	     -4.15693853	     -7.10218924	    -58.27440825	      3.81345117	     -9.57083786	      7.48346780	      5.63933221	      6.68019712	      1.77719300	     -8.41293203	      5.12001714	     -7.94354333	     -1.12707267	     -8.10161934	     -4.23810477	      1.67147179
      1.29550000	     -0.41954231	      2.26933047	     -1.01205290	      0.26752545	      1.03763668	      0.27458387	     23.55129439	     -3.94397021	     -7.01397627	    -57.24098683	      3.85013555	     -9.65912440	      7.38872624	      5.14115902	      6.54371817	      1.83223550	     -8.09032308	      5.18278013	     -7.97376159	     -1.15574248	     -8.17774775	     -4.04063663	      1.65882389
      1.29966667	     -0.42650987	      2.14767626	     -1.04268579	      0.27249088	      1.03817219	      0.27440466	     23.88925935	     -3.74896826	     -6.92204621	    -56.16561538	      3.82607259	     -9.78379842	      7.24643254	      4.67400408	      6.42896240	      1.92946857	     -7.75628478	      5.24101181	     -8.04261109	     -1.20025490	     -8.21404315	     -3.85821190	      1.63682459
      1.30383333	     -0.45319141	      2.02360168	     -1.07157594	      0.27743191	      1.03863054	      0.27423148	     24.22927178	     -3.54685498	     -6.82115096	    -55.04257149	      3.85546411	     -9.81556337	      7.16104226	      4.25814202	      6.30841339	      1.96602211	     -7.48066687	      5.29664752	     -8.08603125	     -1.22763741	     -8.22638895	     -3.67360861	      1.61754473
      1.30800000	     -0.44146685	      1.92656123	     -1.09481300	      0.28237230	      1.03908044	      0.27406334	     24.50961569	     -3.37678942	     -6.72446923	    -53.87004107	      3.76274209	     -9.96638602	      6.99348548	      3.78056274	      6.22227255	      2.08650577	     -7.16067254	      5.35101581	     -8.18582801	     -1.28181178	     -8.28863294	     -3.53307315	      1.58561244
      1.31216667	     -0.44150278	      1.82123757	     -1.11104875	      0.28730345	      1.03947775	      0.27389373	     24.77797942	     -3.19679215	     -6.63157318	    -52.64242244	      3.68284463	    -10.06668436	      6.81593278	      3.33212211	      6.12603172	      2.18627202	     -6.87375107	      5.40213450	     -8.28036737	     -1.34064686	     -8.33606813	     -3.37618167	      1.55020327
      1.31633333	     -0.45741199	      1.72720809	     -1.13124497	      0.29221843	      1.03978531	      0.27373817	     25.04816142	     -3.02306305	     -6.52244133	    -51.37315433	      3.58095938	    -10.18103563	      6.59703119	      2.90947148	      6.04136936	      2.28368574	     -6.60121406	      5.44844046	     -8.38992590	     -1.41452054	     -8.37954301	     -3.23183183	      1.50836514
      1.32050000	     -0.48604216	      1.63650460	     -1.12545199	      0.29714739	      1.04002725	      0.27354379	     25.30478181	     -2.87126240	     -6.45465199	    -50.05517231	      3.48982439	    -10.22339675	      6.48671550	      2.52204286	      5.95936446	      2.34897392	     -6.37585580	      5.52761831	     -8.43318912	     -1.44936526	     -8.37662825	     -3.08024810	      1.48040432
      1.32466667	     -0.50823459	      1.56707853	     -1.11899394	      0.30208237	      1.04023500	      0.27336228	     25.53548610	     -2.73783837	     -6.38029059	    -48.68931166	      3.31926051	    -10.38203694	      5.58170490	      2.08087602	      5.91127022	      2.60958525	     -6.04647159	      5.45288487	     -8.78554746	     -1.77334241	     -8.39742277	     -2.97438291	      1.37438918
